<?xml version="1.0" encoding="utf-8"?>
<!-- Generator: Adobe Illustrator 21.0.2, SVG Export Plug-In . SVG Version: 6.00 Build 0)  -->
<svg version="1.1" id="Capa_1" xmlns="http://www.w3.org/2000/svg" xmlns:xlink="http://www.w3.org/1999/xlink" x="0px" y="0px"
	 viewBox="0 0 127 80" style="enable-background:new 0 0 127 80;" xml:space="preserve">
<style type="text/css">
	.st0{fill:#56585A;}
	.st1{fill:#44793C;}
	.st2{fill:#C2CE32;}
	.st3{fill:#FFFFFF;}
	.st4{fill:#6EAD3B;}
</style>
<g>
	<path class="st4" d="M118.7,1.9H8.1c-2.9,0-5.3,2.3-5.3,5.2v32.3v33.2c0,2.9,2.4,5.2,5.3,5.2h110.6c2.9,0,5.3-2.3,5.3-5.2V39.4V7.2
		C124,4.3,121.6,1.9,118.7,1.9"/>
	<path class="st3" d="M99.2,44.4l-2.7-2.8l-4.2-4.2l0.5-0.1c3.7-0.8,6.3-3.1,6.3-7.7c0-5.3-4.4-8.2-8.9-8.2H81c-0.1,0-0.2,0-0.2,0.1
		c-0.1,0-0.1,0.2-0.1,0.3v2.8v17v3.2c0,0.2,0.1,0.3,0.1,0.3c0.1,0,0.2,0,0.3,0l0.1,0v0l3.8-0.6c0.1,0,0.2,0,0.2,0
		c0.1,0,0.1-0.2,0.1-0.3v-2.6v-0.2V25.9h5.1c2.2,0,4.1,1.6,4.1,3.7c0,2.1-1.5,3.1-3.7,3.7c-2.2,0.6-3.2,2.1-3.3,3.8
		c0,1.1,0.4,2.2,1.2,3.1c0.7,0.9,1.2,1.3,1.3,1.4c0,0,0,0,0,0l6.2,6.3c0.4,0.2,0.8,0.4,1.3,0.4c1.3,0,2.4-1,2.4-2.3
		C99.9,45.2,99.6,44.7,99.2,44.4"/>
	<path class="st3" d="M49.3,38.4C48.9,38.1,48.5,38,48,38c-0.6,0-1.3,0.3-1.7,0.7c-0.1,0.2-0.4,0.4-0.6,0.6
		c-1.6,1.5-3.7,2.3-5.9,2.3c-4.8,0-8.7-3.9-8.7-8.7c0-4.8,3.9-8.7,8.7-8.7c1.6,0,3.8,0.3,5.7,2.1c0,0,0,0,0.1,0
		c0.1,0.1,0.2,0.1,0.3,0l4.1-0.6c0.4-0.1,0.2-0.4,0.2-0.4c-0.7-1.3-3.8-6-10.8-5.9c-7.4,0.1-13,5.9-13.1,13.5c0,3.3,1.2,6.3,3.2,8.7
		c2.5,2.9,6.2,4.8,10.2,4.8c5,0,8.3-2.6,9.8-4.2c0,0,0.2-0.2,0.4-0.6c0.2-0.3,0.4-0.8,0.4-1.3C50.4,39.5,50,38.8,49.3,38.4"/>
	<path class="st3" d="M74.7,20.5c-1.9,0-3,1.4-3.9,3.1l-5.3,11.2c0,0,0,0.1-0.1,0.1c-0.1,0-0.1-0.1-0.1-0.1l-4.5-7.6v0l-1.4-2.4
		c-0.1-0.1-0.2-0.2-0.2-0.2c-0.1,0-0.1,0-0.1,0L53,25.4c-0.1,0-0.1,0-0.2,0.1c-0.1,0-0.1,0.1-0.1,0.3v2.8v13v4.3
		c0,1.3,1.1,2.3,2.3,2.3c1.3,0,2.3-1,2.3-2.3v-4.3V30.5L64,41.6l1.4,2.4c0,0,0,0.1,0.1,0.1c0.1,0,0.1-0.1,0.1-0.1l1.2-2.4L73.6,28
		v13.6v4.2h0c0,0.2,0.1,0.3,0.2,0.3c0.1,0,0.1,0,0.3,0l0,0l3.9-0.6h0c0.1,0,0.2,0,0.2-0.1c0.1,0,0.1-0.1,0.1-0.3h0v-3.7V24
		C78.2,22.1,76.6,20.5,74.7,20.5"/>
	<path class="st3" d="M31.1,57.4c0-0.4-0.1-0.7-0.3-0.9c-0.2-0.2-0.6-0.3-1-0.3h-1.9v2.5h1.9c0.3,0,0.5,0,0.7-0.1
		c0.2-0.1,0.3-0.2,0.4-0.3c0.1-0.1,0.2-0.3,0.2-0.4C31,57.6,31.1,57.5,31.1,57.4 M27.8,55h1.9c0.1,0,0.2,0,0.3,0
		c0.1,0,0.2-0.1,0.4-0.1c0.1-0.1,0.2-0.2,0.3-0.3c0.1-0.1,0.1-0.3,0.1-0.5c0-0.3-0.1-0.5-0.3-0.7c-0.2-0.2-0.4-0.2-0.7-0.2h-1.9V55z
		 M31.3,55.5c0.2,0.1,0.4,0.2,0.6,0.3c0.2,0.1,0.3,0.3,0.4,0.5c0.1,0.2,0.2,0.4,0.2,0.6c0,0.2,0.1,0.4,0.1,0.6c0,0.4-0.1,0.7-0.2,1
		c-0.1,0.3-0.3,0.6-0.6,0.8c-0.2,0.2-0.5,0.4-0.8,0.5c-0.3,0.1-0.7,0.2-1,0.2H27c-0.2,0-0.4-0.1-0.5-0.2c-0.1-0.1-0.1-0.3-0.1-0.5
		v-6.7c0-0.2,0-0.4,0.1-0.5c0.1-0.1,0.3-0.2,0.5-0.2l2.7,0c0.4,0,0.7,0,1,0.1c0.3,0.1,0.6,0.2,0.8,0.4c0.2,0.2,0.4,0.4,0.5,0.6
		c0.1,0.3,0.2,0.5,0.2,0.9c0,0.3-0.1,0.7-0.3,0.9C31.7,55,31.5,55.2,31.3,55.5L31.3,55.5z"/>
	<path class="st3" d="M36.5,57.1h-1.1c-0.1,0-0.3,0-0.4,0c-0.2,0-0.3,0.1-0.4,0.1c-0.1,0.1-0.2,0.2-0.3,0.3
		c-0.1,0.1-0.1,0.3-0.1,0.5c0,0.3,0.1,0.6,0.3,0.7c0.2,0.1,0.5,0.2,0.9,0.2h0.2c0.1,0,0.2,0,0.3,0c0.1,0,0.2,0,0.3-0.1
		c0.1,0,0.2-0.1,0.3-0.1V57.1z M37.9,59.2c0,0.2-0.1,0.3-0.2,0.4c-0.2,0.1-0.3,0.1-0.5,0.2c-0.2,0-0.4,0.1-0.6,0.1
		c-0.2,0-0.4,0.1-0.6,0.1c-0.2,0-0.4,0-0.6,0c-0.5,0-0.9-0.1-1.3-0.2c-0.3-0.1-0.6-0.2-0.8-0.4c-0.2-0.2-0.3-0.4-0.4-0.6
		c-0.1-0.2-0.1-0.5-0.1-0.7c0-0.3,0-0.5,0.1-0.8c0.1-0.2,0.2-0.5,0.4-0.7c0.2-0.2,0.5-0.3,0.8-0.4c0.3-0.1,0.7-0.2,1.2-0.2h1.3v-0.2
		c0-0.1,0-0.3,0-0.4c0-0.1-0.1-0.2-0.2-0.3c-0.1-0.1-0.2-0.2-0.4-0.2c-0.2,0-0.4-0.1-0.6-0.1c-0.3,0-0.5,0-0.9,0.1
		c-0.3,0-0.6,0.1-0.7,0.2c-0.1,0-0.1,0-0.2,0c0,0-0.1-0.1-0.1-0.1l-0.2-0.7c0-0.1,0-0.2,0.1-0.2c0.3-0.1,0.7-0.2,1.1-0.3
		c0.4-0.1,0.7-0.1,1.1-0.1c0.8,0,1.4,0.2,1.7,0.5c0.4,0.4,0.6,0.9,0.6,1.5V59.2z"/>
	<path class="st3" d="M40.9,54.9c-0.1,0-0.2,0-0.4,0c-0.2,0-0.3,0-0.5,0.1v4.8c0,0.1,0,0.1,0,0.2c0,0-0.1,0-0.2,0h-0.9
		c-0.1,0-0.1,0-0.2,0c0,0-0.1-0.1-0.1-0.2v-4.9c0-0.3,0.1-0.5,0.2-0.6c0.1-0.2,0.3-0.3,0.6-0.3c0.1,0,0.2,0,0.3,0c0.1,0,0.3,0,0.4,0
		c0.1,0,0.3,0,0.4,0c0.1,0,0.3,0,0.4,0c0.5,0,0.9,0.1,1.3,0.2c0.4,0.1,0.7,0.3,0.9,0.5c0.2,0.2,0.4,0.5,0.5,0.9
		c0.1,0.4,0.2,0.8,0.2,1.4v3c0,0.1,0,0.1,0,0.2c0,0-0.1,0-0.2,0h-0.9c-0.1,0-0.1,0-0.2,0c0,0,0-0.1,0-0.2v-3.1c0-0.3,0-0.6-0.1-0.8
		c0-0.2-0.1-0.4-0.3-0.6c-0.1-0.1-0.3-0.3-0.5-0.3C41.5,54.9,41.2,54.9,40.9,54.9"/>
	<path class="st3" d="M47.3,58.8c0.2,0,0.5,0,0.7-0.1c0.2-0.1,0.4-0.1,0.6-0.2c0.1,0,0.1,0,0.2,0c0,0,0.1,0.1,0.1,0.1l0.3,0.7
		c0.1,0.1,0.1,0.2-0.1,0.3c-0.3,0.2-0.7,0.3-1,0.3c-0.4,0.1-0.7,0.1-1,0.1c-0.9,0-1.5-0.3-2-0.8c-0.5-0.5-0.7-1.3-0.7-2.3
		c0-0.5,0.1-0.9,0.2-1.3c0.1-0.4,0.3-0.7,0.6-1c0.2-0.3,0.5-0.5,0.9-0.6c0.3-0.1,0.7-0.2,1.2-0.2c0.3,0,0.6,0,0.9,0.1
		c0.3,0.1,0.6,0.2,0.8,0.3c0.1,0,0.1,0.1,0.1,0.1c0,0,0,0.1,0,0.2l-0.3,0.7c0,0.1-0.1,0.1-0.1,0.1c0,0-0.1,0-0.2,0
		c-0.2-0.1-0.4-0.1-0.6-0.2c-0.2-0.1-0.4-0.1-0.6-0.1c-0.3,0-0.5,0.1-0.7,0.2c-0.2,0.1-0.3,0.3-0.5,0.4c-0.1,0.2-0.2,0.4-0.3,0.6
		c-0.1,0.2-0.1,0.5-0.1,0.7c0,0.3,0,0.5,0.1,0.8c0,0.2,0.1,0.4,0.2,0.6c0.1,0.2,0.3,0.3,0.5,0.4C46.7,58.8,47,58.8,47.3,58.8"/>
	<path class="st3" d="M53.6,56.9c0-0.3,0-0.5-0.1-0.8c0-0.2-0.1-0.5-0.2-0.7c-0.1-0.2-0.2-0.3-0.4-0.4c-0.2-0.1-0.4-0.2-0.7-0.2
		c-0.2,0-0.5,0.1-0.6,0.2c-0.2,0.1-0.3,0.2-0.5,0.4c-0.1,0.2-0.2,0.4-0.3,0.6c-0.1,0.3-0.1,0.5-0.1,0.8c0,0.6,0.1,1.1,0.3,1.5
		c0.2,0.4,0.6,0.5,1.1,0.5c0.3,0,0.5-0.1,0.7-0.2c0.2-0.1,0.3-0.3,0.4-0.4c0.1-0.2,0.2-0.4,0.2-0.6C53.6,57.4,53.6,57.1,53.6,56.9
		 M55,56.8c0,1-0.2,1.8-0.7,2.3c-0.5,0.5-1.2,0.8-2.1,0.8c-0.9,0-1.6-0.3-2.1-0.8c-0.5-0.5-0.7-1.3-0.7-2.3c0-0.5,0.1-0.9,0.2-1.3
		c0.1-0.4,0.3-0.7,0.6-1c0.2-0.3,0.5-0.5,0.9-0.6c0.3-0.1,0.7-0.2,1.1-0.2c0.9,0,1.6,0.3,2.1,0.8C54.7,55.1,55,55.9,55,56.8"/>
	<path class="st3" d="M66.6,57h-1.1c-0.1,0-0.3,0-0.4,0c-0.2,0-0.3,0.1-0.4,0.1c-0.1,0.1-0.3,0.2-0.3,0.3c-0.1,0.1-0.1,0.3-0.1,0.5
		c0,0.3,0.1,0.6,0.3,0.7c0.2,0.1,0.5,0.2,0.9,0.2c0.1,0,0.1,0,0.2,0c0.1,0,0.2,0,0.3,0c0.1,0,0.2,0,0.3-0.1c0.1,0,0.2-0.1,0.3-0.1
		V57z M67.9,59.2c0,0.2-0.1,0.3-0.2,0.4c-0.2,0.1-0.3,0.1-0.5,0.2c-0.2,0.1-0.4,0.1-0.6,0.1c-0.2,0-0.4,0.1-0.6,0.1
		c-0.2,0-0.4,0-0.6,0c-0.5,0-0.9-0.1-1.3-0.2c-0.3-0.1-0.6-0.2-0.8-0.4c-0.2-0.2-0.3-0.4-0.4-0.6c-0.1-0.2-0.1-0.5-0.1-0.7
		c0-0.3,0-0.5,0.1-0.8c0.1-0.2,0.2-0.5,0.4-0.7c0.2-0.2,0.5-0.3,0.8-0.5c0.3-0.1,0.7-0.2,1.2-0.2h1.3v-0.2c0-0.1,0-0.3,0-0.4
		c0-0.1-0.1-0.2-0.2-0.3c-0.1-0.1-0.2-0.2-0.4-0.2c-0.2-0.1-0.4-0.1-0.6-0.1c-0.3,0-0.5,0-0.9,0.1c-0.3,0-0.6,0.1-0.8,0.2
		c-0.1,0-0.1,0-0.2,0c0,0-0.1-0.1-0.1-0.1l-0.2-0.7c0-0.1,0-0.2,0.1-0.2c0.3-0.1,0.7-0.2,1.1-0.3c0.4,0,0.7-0.1,1.1-0.1
		c0.8,0,1.4,0.2,1.8,0.5c0.4,0.4,0.6,0.9,0.6,1.6V59.2z"/>
	<path class="st3" d="M75.2,57h-1.1c-0.1,0-0.3,0-0.4,0c-0.1,0-0.3,0.1-0.4,0.1c-0.1,0.1-0.3,0.2-0.3,0.3c-0.1,0.1-0.1,0.3-0.1,0.5
		c0,0.3,0.1,0.6,0.3,0.7c0.2,0.1,0.5,0.2,0.9,0.2c0.1,0,0.1,0,0.2,0c0.1,0,0.2,0,0.3,0c0.1,0,0.2,0,0.3-0.1c0.1,0,0.2-0.1,0.3-0.1
		V57z M76.6,59.2c0,0.2-0.1,0.3-0.2,0.4c-0.2,0.1-0.4,0.1-0.5,0.2c-0.2,0.1-0.4,0.1-0.6,0.1C75,60,74.8,60,74.6,60
		c-0.2,0-0.4,0-0.6,0c-0.5,0-0.9-0.1-1.3-0.2c-0.3-0.1-0.6-0.2-0.8-0.4c-0.2-0.2-0.3-0.4-0.4-0.6c-0.1-0.2-0.1-0.5-0.1-0.7
		c0-0.3,0-0.5,0.1-0.8c0.1-0.2,0.2-0.5,0.4-0.7c0.2-0.2,0.5-0.3,0.8-0.5c0.3-0.1,0.7-0.2,1.2-0.2h1.3v-0.2c0-0.1,0-0.3,0-0.4
		c0-0.1-0.1-0.2-0.2-0.3c-0.1-0.1-0.2-0.2-0.4-0.2c-0.2-0.1-0.4-0.1-0.6-0.1c-0.3,0-0.5,0-0.9,0.1c-0.3,0-0.6,0.1-0.8,0.2
		c-0.1,0-0.1,0-0.2,0c0,0-0.1-0.1-0.1-0.1L72,54.2c0-0.1,0-0.2,0.1-0.2c0.3-0.1,0.7-0.2,1.1-0.3c0.4,0,0.7-0.1,1.1-0.1
		c0.8,0,1.4,0.2,1.8,0.5c0.4,0.4,0.6,0.9,0.6,1.6V59.2z"/>
	<path class="st3" d="M86,54.8c-0.2,0-0.4,0-0.6,0.1c-0.2,0.1-0.3,0.2-0.4,0.3c-0.1,0.1-0.2,0.3-0.3,0.5c-0.1,0.2-0.1,0.4-0.1,0.6
		h2.7c0-0.2,0-0.4-0.1-0.6c0-0.2-0.1-0.3-0.2-0.5c-0.1-0.1-0.2-0.2-0.4-0.3C86.5,54.8,86.3,54.8,86,54.8 M86,53.7
		c0.9,0,1.5,0.2,2,0.7c0.4,0.5,0.6,1.1,0.6,1.9c0,0.2,0,0.4-0.1,0.5c0,0.1-0.1,0.2-0.2,0.3c-0.1,0.1-0.2,0.1-0.3,0.2
		c-0.1,0-0.2,0-0.4,0h-3.1c0,0.3,0,0.6,0.1,0.8c0.1,0.2,0.2,0.4,0.3,0.5c0.1,0.1,0.3,0.2,0.5,0.3c0.2,0.1,0.4,0.1,0.6,0.1
		c0.2,0,0.5,0,0.7-0.1c0.2-0.1,0.4-0.1,0.6-0.2c0.1,0,0.2,0,0.3,0.1l0.3,0.7c0.1,0.1,0,0.2-0.1,0.3c-0.3,0.2-0.6,0.3-1,0.4
		c-0.3,0.1-0.7,0.1-1,0.1c-0.9,0-1.6-0.3-2.1-0.8c-0.5-0.5-0.7-1.3-0.7-2.4c0-0.5,0.1-1,0.2-1.4c0.1-0.4,0.3-0.7,0.6-1
		c0.2-0.3,0.5-0.5,0.9-0.6C85.2,53.7,85.6,53.7,86,53.7"/>
	<path class="st3" d="M98.5,57h-1.1c-0.1,0-0.3,0-0.4,0c-0.2,0-0.3,0.1-0.4,0.1c-0.1,0.1-0.2,0.2-0.3,0.3c-0.1,0.1-0.1,0.3-0.1,0.5
		c0,0.3,0.1,0.6,0.3,0.7c0.2,0.1,0.5,0.2,0.9,0.2c0.1,0,0.1,0,0.2,0c0.1,0,0.2,0,0.3,0c0.1,0,0.2,0,0.3-0.1c0.1,0,0.2-0.1,0.3-0.1
		V57z M99.9,59.2c0,0.2-0.1,0.3-0.2,0.4c-0.2,0.1-0.3,0.1-0.5,0.2c-0.2,0.1-0.4,0.1-0.6,0.1c-0.2,0-0.4,0.1-0.6,0.1
		c-0.2,0-0.4,0-0.6,0c-0.5,0-0.9-0.1-1.3-0.2c-0.3-0.1-0.6-0.2-0.8-0.4c-0.2-0.2-0.3-0.4-0.4-0.6c-0.1-0.2-0.1-0.5-0.1-0.7
		c0-0.3,0-0.5,0.1-0.8c0.1-0.2,0.2-0.5,0.4-0.7c0.2-0.2,0.5-0.3,0.8-0.5c0.3-0.1,0.7-0.2,1.2-0.2h1.3v-0.2c0-0.1,0-0.3-0.1-0.4
		c0-0.1-0.1-0.2-0.2-0.3c-0.1-0.1-0.2-0.2-0.4-0.2c-0.2-0.1-0.4-0.1-0.6-0.1c-0.3,0-0.5,0-0.9,0.1c-0.3,0-0.6,0.1-0.8,0.2
		c-0.1,0-0.1,0-0.2,0c0,0-0.1-0.1-0.1-0.1l-0.2-0.7c0-0.1,0-0.2,0.1-0.2c0.3-0.1,0.7-0.2,1.1-0.3c0.4,0,0.8-0.1,1.1-0.1
		c0.8,0,1.4,0.2,1.8,0.5c0.4,0.4,0.6,0.9,0.6,1.6V59.2z"/>
	<path class="st3" d="M63,51.8c0,0-0.1-0.1-0.2-0.1h-3.2c-0.4,0-0.7,0.1-1,0.2c-0.3,0.1-0.5,0.3-0.6,0.5c-0.2,0.2-0.3,0.4-0.3,0.7
		c-0.1,0.3-0.1,0.5-0.1,0.8v5.8c0,0.1,0,0.2,0.1,0.2c0,0,0.1,0,0.2,0h0.4c0.3,0,0.8-0.1,0.8-0.9v-2.7h3.5c0.1,0,0.2,0,0.2-0.1
		c0,0,0-0.1,0-0.2v-0.7c0-0.1,0-0.2,0-0.2c0,0-0.1-0.1-0.2-0.1h-3.5v-1.3c0-0.2,0.1-0.4,0.2-0.6c0.1-0.1,0.3-0.2,0.6-0.2h3.1
		c0.1,0,0.2,0,0.2-0.1c0,0,0.1-0.1,0.1-0.2V52C63,51.9,63,51.9,63,51.8"/>
	<path class="st3" d="M81.2,57.8c-0.1,0.3-0.2,0.5-0.3,0.6c-0.1,0.2-0.3,0.3-0.5,0.4c-0.2,0.1-0.4,0.1-0.7,0.1c-0.2,0-0.3,0-0.5,0
		c-0.2,0-0.4-0.1-0.6-0.1V55c0.2-0.1,0.5-0.1,0.7-0.1c0.2,0,0.4,0,0.5,0c0.5,0,0.8,0.2,1.1,0.5c0.3,0.3,0.4,0.8,0.4,1.5
		C81.3,57.2,81.3,57.5,81.2,57.8 M82.6,55.5c-0.1-0.4-0.3-0.7-0.5-1c-0.2-0.3-0.5-0.5-0.8-0.6c-0.3-0.2-0.7-0.2-1.2-0.2
		c-0.2,0-0.4,0-0.7,0.1c-0.3,0-0.5,0.1-0.7,0.1l0-2.2c0-0.1,0-0.2,0-0.2c0,0-0.1,0-0.2,0h-0.4c-0.3,0-0.7,0.2-0.8,0.9v7
		c0,0.1,0,0.1,0,0.2c0,0,0.1,0.1,0.1,0.1c0.3,0.2,0.7,0.3,1.1,0.3C79,60,79.4,60,79.8,60c0.5,0,0.9-0.1,1.3-0.2
		c0.4-0.2,0.7-0.4,0.9-0.7c0.2-0.3,0.4-0.6,0.5-1c0.1-0.4,0.2-0.8,0.2-1.3C82.7,56.3,82.7,55.9,82.6,55.5"/>
	<path class="st3" d="M91.6,59.6l-0.1-0.6c0-0.1,0-0.1-0.1-0.1c0,0-0.1,0-0.1,0c-0.1,0-0.1,0-0.2,0c-0.1,0-0.2,0-0.2,0
		c-0.2,0-0.3,0-0.3-0.1c-0.1-0.1-0.1-0.2-0.1-0.4v-6.7c0-0.1,0-0.1-0.1-0.2c0,0-0.1,0-0.2,0h-0.4c-0.2,0-0.7,0.2-0.8,0.8v6.4
		c0,0.5,0.1,0.9,0.3,1.1c0.2,0.2,0.5,0.3,0.9,0.3c0.2,0,0.3,0,0.5,0c0.2,0,0.4-0.1,0.5-0.1c0.1,0,0.1-0.1,0.1-0.1
		C91.6,59.7,91.6,59.7,91.6,59.6"/>
	<path class="st3" d="M94.5,59.6l-0.1-0.6c0-0.1,0-0.1-0.1-0.1c0,0-0.1,0-0.1,0c-0.1,0-0.1,0-0.2,0c-0.1,0-0.2,0-0.2,0
		c-0.2,0-0.3,0-0.3-0.1c0-0.1-0.1-0.2-0.1-0.4v-6.7c0-0.1,0-0.1-0.1-0.2c0,0-0.1,0-0.2,0h-0.4c-0.3,0-0.8,0.2-0.8,0.9v6.3
		c0,0.5,0.1,0.9,0.3,1.1c0.2,0.2,0.5,0.3,1,0.3c0.2,0,0.3,0,0.5,0c0.2,0,0.4-0.1,0.5-0.1c0.1,0,0.1-0.1,0.1-0.1
		C94.5,59.7,94.5,59.7,94.5,59.6"/>
	<path class="st3" d="M71.2,59.6l-0.1-0.6c0-0.1,0-0.1-0.1-0.1c0,0-0.1,0-0.1,0c-0.1,0-0.1,0-0.2,0c-0.1,0-0.1,0-0.2,0
		c-0.2,0-0.3,0-0.3-0.1c-0.1-0.1-0.1-0.2-0.1-0.4v-6.7c0-0.1,0-0.1,0-0.2c0,0-0.1,0-0.2,0h-0.4c-0.3,0-0.8,0.2-0.8,0.9v6.3
		c0,0.5,0.1,0.9,0.3,1.1c0.2,0.2,0.5,0.3,1,0.3c0.1,0,0.3,0,0.5,0c0.2,0,0.4-0.1,0.5-0.1c0.1,0,0.1-0.1,0.1-0.1
		C71.2,59.7,71.2,59.7,71.2,59.6"/>
</g>
</svg>
