<?xml version="1.0" encoding="utf-8"?>
<!-- Generator: Adobe Illustrator 21.0.2, SVG Export Plug-In . SVG Version: 6.00 Build 0)  -->
<svg version="1.1" id="Capa_1" xmlns="http://www.w3.org/2000/svg" xmlns:xlink="http://www.w3.org/1999/xlink" x="0px" y="0px"
	 viewBox="0 0 127 80" style="enable-background:new 0 0 127 80;" xml:space="preserve">
<style type="text/css">
	.st0{fill:#56585A;}
	.st1{fill:#44793C;}
	.st2{fill:#C2CE32;}
	.st3{fill:#FFFFFF;}
	.st4{fill:#6EAD3B;}
</style>
<path class="st0" d="M117.6,78H8.9C5.7,78,3,75.4,3,72.1V7.9C3,4.6,5.7,2,8.9,2h108.6c3.2,0,5.9,2.6,5.9,5.9v64.3
	C123.4,75.4,120.8,78,117.6,78"/>
<path class="st0" d="M8.9,3.4c-2.5,0-4.5,2-4.5,4.4v64.3c0,2.4,2,4.4,4.5,4.4h108.6c2.5,0,4.5-2,4.5-4.4V7.9c0-2.4-2-4.4-4.5-4.4
	H8.9z"/>
<path class="st1" d="M36.8,50.3c-4.4,0-17.2-3.6-17.2-8c0-4.4,12.8-8,17.2-8c4.4,0,8,3.6,8,8C44.7,46.7,41.2,50.3,36.8,50.3"/>
<path class="st2" d="M32.8,37.3c-2.9-1.7-9.8-9.1-8-12c1.7-2.9,11.4-0.2,14.3,1.6c2.9,1.7,3.8,5.5,2,8.3
	C39.4,38.2,35.7,39.1,32.8,37.3"/>
<path class="st3" d="M30.5,35.4c0.9,0.8,1.8,1.5,2.4,1.9c2.8,1.7,6.4,0.9,8.2-1.8c-1.2-0.8-2.7-1.2-4.2-1.2
	C35.4,34.3,33,34.7,30.5,35.4"/>
<path class="st3" d="M55.7,30.8c0.3,0.1,0.5,0.3,0.8,0.5c0.2,0.2,0.4,0.4,0.5,0.6c0.1,0.2,0.2,0.5,0.3,0.8c0.1,0.3,0.1,0.5,0.1,0.8
	c0,0.5-0.1,0.9-0.3,1.3c-0.2,0.4-0.5,0.8-0.8,1c-0.3,0.3-0.7,0.5-1.2,0.7c-0.4,0.2-0.9,0.2-1.4,0.2h-3.8c-0.3,0-0.6-0.1-0.7-0.2
	c-0.1-0.1-0.2-0.4-0.2-0.7v-9.2c0-0.3,0.1-0.5,0.2-0.7c0.1-0.1,0.4-0.2,0.7-0.2l3.6,0c0.5,0,0.9,0.1,1.3,0.2
	c0.4,0.1,0.8,0.3,1.1,0.5c0.3,0.2,0.5,0.5,0.7,0.8c0.2,0.3,0.3,0.8,0.3,1.2c0,0.5-0.1,0.9-0.4,1.3c-0.2,0.4-0.5,0.7-0.9,0.9V30.8z
	 M50.9,30.1h2.5c0.1,0,0.3,0,0.5-0.1c0.2,0,0.3-0.1,0.5-0.2c0.1-0.1,0.3-0.2,0.4-0.4c0.1-0.2,0.1-0.4,0.1-0.7c0-0.4-0.1-0.7-0.4-0.9
	c-0.2-0.2-0.6-0.3-1-0.3h-2.6V30.1z M55.4,33.4c0-0.5-0.2-0.9-0.5-1.2c-0.3-0.3-0.8-0.5-1.4-0.5h-2.6v3.4h2.6c0.4,0,0.7-0.1,0.9-0.2
	c0.2-0.1,0.4-0.2,0.6-0.4c0.1-0.2,0.2-0.4,0.3-0.6C55.4,33.7,55.4,33.5,55.4,33.4"/>
<path class="st3" d="M64.7,35.9c0,0.3-0.1,0.4-0.3,0.5c-0.2,0.1-0.5,0.2-0.7,0.3c-0.3,0.1-0.5,0.1-0.8,0.2c-0.3,0-0.6,0.1-0.8,0.1
	c-0.3,0-0.5,0-0.8,0c-0.7,0-1.3-0.1-1.7-0.2c-0.4-0.1-0.8-0.3-1.1-0.6c-0.3-0.2-0.4-0.5-0.6-0.8c-0.1-0.3-0.2-0.7-0.2-1
	c0-0.4,0.1-0.7,0.2-1.1c0.1-0.3,0.3-0.6,0.6-0.9c0.3-0.3,0.6-0.5,1-0.6c0.4-0.2,1-0.2,1.6-0.2h1.7v-0.3c0-0.2,0-0.4-0.1-0.5
	c0-0.2-0.1-0.3-0.2-0.4c-0.1-0.1-0.3-0.2-0.5-0.3c-0.2-0.1-0.5-0.1-0.8-0.1c-0.4,0-0.7,0-1.2,0.1c-0.4,0.1-0.8,0.1-1,0.2
	c-0.1,0-0.2,0-0.3,0c-0.1,0-0.1-0.1-0.1-0.2l-0.2-0.9c0-0.2,0-0.3,0.1-0.3c0.4-0.2,0.9-0.3,1.4-0.4c0.5-0.1,1-0.1,1.5-0.1
	c1.1,0,1.9,0.2,2.4,0.7c0.5,0.5,0.8,1.2,0.8,2.1V35.9z M62.8,32.9h-1.5c-0.2,0-0.4,0-0.6,0c-0.2,0-0.4,0.1-0.6,0.2
	c-0.2,0.1-0.3,0.2-0.5,0.4c-0.1,0.2-0.2,0.4-0.2,0.7c0,0.4,0.2,0.8,0.5,0.9c0.3,0.2,0.7,0.3,1.2,0.3c0.1,0,0.2,0,0.3,0
	c0.1,0,0.3,0,0.4,0c0.1,0,0.3,0,0.5-0.1c0.2,0,0.3-0.1,0.4-0.1V32.9z"/>
<path class="st3" d="M68.8,30c-0.1,0-0.3,0-0.5,0c-0.2,0-0.5,0-0.7,0.1v6.5c0,0.1,0,0.2-0.1,0.2c0,0-0.1,0-0.2,0h-1.2
	c-0.1,0-0.2,0-0.2,0c-0.1,0-0.1-0.1-0.1-0.2v-6.7c0-0.4,0.1-0.7,0.2-0.9c0.1-0.2,0.4-0.4,0.8-0.4c0.1,0,0.2,0,0.4,0
	c0.2,0,0.4,0,0.6,0c0.2,0,0.4,0,0.6,0c0.2,0,0.3,0,0.5,0c0.7,0,1.3,0.1,1.8,0.2c0.5,0.1,0.9,0.4,1.2,0.7c0.3,0.3,0.6,0.7,0.7,1.2
	c0.2,0.5,0.2,1.1,0.2,1.8v4.1c0,0.1,0,0.2-0.1,0.2c0,0-0.1,0-0.2,0h-1.2c-0.1,0-0.2,0-0.2,0c0,0-0.1-0.1-0.1-0.2v-4.2
	c0-0.4,0-0.8-0.1-1.1c-0.1-0.3-0.2-0.6-0.3-0.7c-0.2-0.2-0.4-0.3-0.7-0.4C69.6,30,69.3,30,68.8,30"/>
<path class="st3" d="M77.5,35.4c0.3,0,0.7,0,1-0.1c0.3-0.1,0.6-0.2,0.8-0.3c0.1-0.1,0.2-0.1,0.2,0c0.1,0,0.1,0.1,0.1,0.2l0.4,0.9
	c0.1,0.2,0.1,0.3-0.1,0.4c-0.4,0.2-0.9,0.4-1.4,0.5c-0.5,0.1-1,0.1-1.4,0.1c-1.2,0-2.1-0.4-2.7-1.1c-0.6-0.7-0.9-1.8-0.9-3.2
	c0-0.7,0.1-1.3,0.3-1.8c0.2-0.5,0.4-1,0.8-1.4c0.3-0.4,0.7-0.7,1.2-0.9c0.5-0.2,1-0.3,1.6-0.3c0.4,0,0.8,0,1.2,0.1
	c0.4,0.1,0.8,0.2,1.1,0.4C79.9,29,80,29,80,29.1c0,0.1,0,0.1,0,0.2l-0.4,0.9c0,0.1-0.1,0.1-0.1,0.2c-0.1,0-0.1,0-0.3,0
	c-0.2-0.1-0.5-0.2-0.8-0.2C78.1,30,77.8,30,77.5,30c-0.4,0-0.7,0.1-0.9,0.2c-0.3,0.2-0.5,0.3-0.6,0.6c-0.2,0.3-0.3,0.5-0.4,0.9
	c-0.1,0.3-0.1,0.7-0.1,1c0,0.4,0,0.7,0.1,1c0.1,0.3,0.2,0.6,0.3,0.8c0.2,0.2,0.4,0.4,0.6,0.6C76.8,35.3,77.1,35.4,77.5,35.4"/>
<path class="st3" d="M88,32.6c0,1.4-0.3,2.5-1,3.2c-0.6,0.7-1.6,1.1-2.9,1.1c-1.3,0-2.2-0.4-2.8-1.1c-0.6-0.7-0.9-1.8-0.9-3.2
	c0-0.7,0.1-1.3,0.3-1.8c0.2-0.5,0.4-1,0.8-1.3c0.3-0.4,0.7-0.6,1.2-0.8c0.5-0.2,1-0.3,1.5-0.3c1.2,0,2.2,0.4,2.8,1.1
	C87.7,30.3,88,31.3,88,32.6 M86.1,32.7c0-0.4,0-0.7-0.1-1.1c-0.1-0.3-0.2-0.6-0.3-0.9c-0.1-0.3-0.3-0.5-0.6-0.6
	c-0.2-0.1-0.6-0.2-0.9-0.2c-0.3,0-0.6,0.1-0.9,0.2c-0.3,0.1-0.5,0.3-0.6,0.6c-0.2,0.2-0.3,0.5-0.4,0.9c-0.1,0.3-0.1,0.7-0.1,1.1
	c0,0.9,0.1,1.6,0.4,2.1c0.3,0.5,0.8,0.7,1.5,0.7c0.4,0,0.7-0.1,0.9-0.2c0.2-0.2,0.5-0.4,0.6-0.6c0.2-0.3,0.3-0.5,0.3-0.9
	C86.1,33.4,86.1,33.1,86.1,32.7"/>
<path class="st3" d="M63.3,49.4c0,0.2-0.1,0.4-0.3,0.5c-0.2,0.1-0.5,0.2-0.7,0.3c-0.3,0.1-0.5,0.1-0.8,0.2c-0.3,0-0.6,0.1-0.8,0.1
	c-0.3,0-0.5,0-0.8,0c-0.7,0-1.3-0.1-1.7-0.2c-0.5-0.1-0.8-0.3-1.1-0.6c-0.3-0.2-0.5-0.5-0.6-0.8c-0.1-0.3-0.2-0.7-0.2-1
	c0-0.4,0.1-0.7,0.2-1.1c0.1-0.3,0.3-0.6,0.6-0.9c0.3-0.3,0.6-0.5,1.1-0.6c0.4-0.2,1-0.2,1.6-0.2h1.8v-0.3c0-0.2,0-0.4-0.1-0.6
	c0-0.2-0.1-0.3-0.2-0.4c-0.1-0.1-0.3-0.2-0.5-0.3c-0.2-0.1-0.5-0.1-0.8-0.1c-0.4,0-0.7,0-1.2,0.1c-0.4,0.1-0.8,0.1-1,0.2
	c-0.1,0-0.2,0-0.2,0c-0.1,0-0.1-0.1-0.1-0.2L57,42.6c0-0.2,0-0.3,0.1-0.3c0.4-0.2,0.9-0.3,1.5-0.4c0.5-0.1,1-0.1,1.5-0.1
	c1.1,0,1.9,0.2,2.4,0.7c0.5,0.5,0.8,1.2,0.8,2.1V49.4z M61.4,46.4h-1.5c-0.2,0-0.4,0-0.6,0c-0.2,0-0.4,0.1-0.6,0.2
	c-0.2,0.1-0.3,0.2-0.5,0.4c-0.1,0.2-0.2,0.4-0.2,0.7c0,0.5,0.2,0.8,0.5,0.9c0.3,0.2,0.7,0.3,1.2,0.3c0.1,0,0.2,0,0.3,0
	c0.1,0,0.3,0,0.4,0c0.2,0,0.3,0,0.5-0.1c0.2,0,0.3-0.1,0.4-0.1V46.4z"/>
<path class="st3" d="M75,49.4c0,0.2-0.1,0.4-0.3,0.5c-0.2,0.1-0.5,0.2-0.7,0.3c-0.3,0.1-0.5,0.1-0.8,0.2c-0.3,0-0.6,0.1-0.8,0.1
	c-0.3,0-0.5,0-0.8,0c-0.7,0-1.3-0.1-1.7-0.2c-0.5-0.1-0.8-0.3-1.1-0.6c-0.3-0.2-0.5-0.5-0.6-0.8c-0.1-0.3-0.2-0.7-0.2-1
	c0-0.4,0.1-0.7,0.2-1.1c0.1-0.3,0.3-0.6,0.6-0.9c0.3-0.3,0.6-0.5,1.1-0.6c0.4-0.2,1-0.2,1.6-0.2h1.8v-0.3c0-0.2,0-0.4-0.1-0.6
	c0-0.2-0.1-0.3-0.2-0.4c-0.1-0.1-0.3-0.2-0.5-0.3c-0.2-0.1-0.5-0.1-0.8-0.1c-0.4,0-0.7,0-1.2,0.1c-0.4,0.1-0.8,0.1-1,0.2
	c-0.1,0-0.2,0-0.2,0c-0.1,0-0.1-0.1-0.1-0.2l-0.2-0.9c0-0.2,0-0.3,0.1-0.3c0.4-0.2,0.9-0.3,1.5-0.4c0.5-0.1,1-0.1,1.5-0.1
	c1.1,0,1.9,0.2,2.4,0.7c0.5,0.5,0.8,1.2,0.8,2.1V49.4z M73.2,46.4h-1.5c-0.2,0-0.4,0-0.6,0c-0.2,0-0.4,0.1-0.6,0.2
	c-0.2,0.1-0.3,0.2-0.5,0.4c-0.1,0.2-0.2,0.4-0.2,0.7c0,0.5,0.2,0.8,0.5,0.9c0.3,0.2,0.7,0.3,1.2,0.3c0.1,0,0.2,0,0.3,0
	c0.1,0,0.3,0,0.4,0c0.1,0,0.3,0,0.5-0.1c0.2,0,0.3-0.1,0.5-0.1V46.4z"/>
<path class="st3" d="M87.9,41.8c1.2,0,2.1,0.3,2.7,0.9c0.6,0.6,0.9,1.5,0.9,2.6c0,0.3,0,0.5-0.1,0.7c-0.1,0.2-0.2,0.3-0.3,0.4
	c-0.1,0.1-0.3,0.2-0.4,0.2c-0.2,0-0.3,0.1-0.5,0.1H86c0,0.4,0.1,0.8,0.2,1c0.1,0.3,0.3,0.5,0.5,0.7c0.2,0.2,0.4,0.3,0.7,0.4
	c0.3,0.1,0.6,0.1,0.9,0.1c0.3,0,0.7,0,1-0.1c0.3-0.1,0.6-0.2,0.8-0.3c0.2-0.1,0.3,0,0.3,0.1l0.4,0.9c0.1,0.2,0,0.3-0.1,0.4
	c-0.4,0.2-0.8,0.4-1.3,0.5c-0.5,0.1-0.9,0.1-1.4,0.1c-1.3,0-2.2-0.3-2.9-1c-0.7-0.7-1-1.8-1-3.2c0-0.7,0.1-1.3,0.3-1.9
	c0.2-0.5,0.4-1,0.8-1.4c0.3-0.4,0.7-0.7,1.2-0.8C86.8,41.9,87.3,41.8,87.9,41.8 M87.9,43.3c-0.3,0-0.5,0.1-0.8,0.2
	c-0.2,0.1-0.4,0.3-0.6,0.4c-0.2,0.2-0.3,0.4-0.4,0.6c-0.1,0.2-0.1,0.5-0.2,0.8h3.6c0-0.3,0-0.5-0.1-0.8c-0.1-0.2-0.1-0.5-0.3-0.6
	c-0.1-0.2-0.3-0.3-0.5-0.4C88.6,43.4,88.3,43.3,87.9,43.3"/>
<path class="st3" d="M106.9,49.4c0,0.2-0.1,0.4-0.3,0.5c-0.2,0.1-0.5,0.2-0.7,0.3c-0.3,0.1-0.5,0.1-0.8,0.2c-0.3,0-0.6,0.1-0.8,0.1
	c-0.3,0-0.5,0-0.8,0c-0.7,0-1.3-0.1-1.7-0.2c-0.4-0.1-0.8-0.3-1.1-0.6c-0.3-0.2-0.4-0.5-0.6-0.8c-0.1-0.3-0.2-0.7-0.2-1
	c0-0.4,0.1-0.7,0.2-1.1c0.1-0.3,0.3-0.6,0.6-0.9c0.3-0.3,0.6-0.5,1.1-0.6c0.4-0.2,1-0.2,1.6-0.2h1.8v-0.3c0-0.2,0-0.4-0.1-0.6
	c0-0.2-0.1-0.3-0.2-0.4c-0.1-0.1-0.3-0.2-0.5-0.3c-0.2-0.1-0.5-0.1-0.8-0.1c-0.4,0-0.7,0-1.2,0.1c-0.4,0.1-0.8,0.1-1,0.2
	c-0.1,0-0.2,0-0.3,0c-0.1,0-0.1-0.1-0.1-0.2l-0.2-0.9c0-0.2,0-0.3,0.1-0.3c0.4-0.2,0.9-0.3,1.4-0.4c0.5-0.1,1-0.1,1.5-0.1
	c1.1,0,1.9,0.2,2.4,0.7c0.5,0.5,0.8,1.2,0.8,2.1V49.4z M105,46.4h-1.5c-0.2,0-0.4,0-0.6,0c-0.2,0-0.4,0.1-0.6,0.2
	c-0.2,0.1-0.3,0.2-0.5,0.4c-0.1,0.2-0.2,0.4-0.2,0.7c0,0.5,0.2,0.8,0.5,0.9c0.3,0.2,0.7,0.3,1.2,0.3c0.1,0,0.2,0,0.3,0
	c0.1,0,0.3,0,0.4,0c0.2,0,0.3,0,0.5-0.1c0.2,0,0.3-0.1,0.5-0.1V46.4z"/>
<path class="st3" d="M56.5,39.3c0-0.1-0.1-0.1-0.3-0.1h-4.4c-0.5,0-1,0.1-1.3,0.2c-0.4,0.2-0.6,0.4-0.9,0.6
	c-0.2,0.3-0.4,0.6-0.5,0.9c-0.1,0.3-0.1,0.7-0.1,1.1v7.9c0,0.1,0,0.2,0.1,0.3c0.1,0,0.2,0.1,0.3,0.1h0.5c0.3,0,1.1-0.2,1.1-1.2v-3.6
	h4.7c0.1,0,0.2,0,0.3-0.1c0-0.1,0.1-0.2,0.1-0.3v-0.9c0-0.2,0-0.2-0.1-0.3c0,0-0.1-0.1-0.3-0.1h-4.7V42c0-0.3,0.1-0.6,0.3-0.8
	c0.2-0.2,0.4-0.3,0.8-0.3h4.2c0.1,0,0.2,0,0.3-0.1c0,0,0.1-0.1,0.1-0.3v-1C56.6,39.5,56.6,39.4,56.5,39.3"/>
<path class="st3" d="M83.3,44.4c-0.1-0.5-0.4-1-0.6-1.4c-0.3-0.4-0.7-0.7-1.1-0.9c-0.5-0.2-1-0.3-1.6-0.3c-0.3,0-0.6,0-1,0.1
	c-0.4,0.1-0.7,0.1-1,0.2l0-3.1c0-0.1,0-0.2-0.1-0.2c0,0-0.1,0-0.2,0h-0.5c-0.3,0-1,0.2-1,1.2v9.6c0,0.1,0,0.2,0,0.2
	c0,0.1,0.1,0.1,0.2,0.1c0.5,0.2,1,0.4,1.6,0.4c0.6,0.1,1.1,0.1,1.7,0.1c0.7,0,1.3-0.1,1.8-0.3c0.5-0.2,0.9-0.5,1.2-0.9
	c0.3-0.4,0.6-0.9,0.7-1.4c0.2-0.5,0.2-1.1,0.2-1.7C83.5,45.4,83.4,44.9,83.3,44.4 M81.4,47.4c-0.1,0.3-0.3,0.6-0.4,0.9
	c-0.2,0.2-0.4,0.4-0.7,0.5c-0.3,0.1-0.6,0.1-0.9,0.1c-0.2,0-0.5,0-0.7,0c-0.3,0-0.5-0.1-0.8-0.2v-5c0.3-0.1,0.7-0.2,1-0.2
	c0.3,0,0.5-0.1,0.7-0.1c0.6,0,1.1,0.2,1.5,0.7c0.4,0.4,0.5,1.1,0.5,2.1C81.6,46.6,81.5,47.1,81.4,47.4"/>
<path class="st3" d="M95.5,49.9L95.4,49c0-0.1,0-0.1-0.1-0.2c0,0-0.1,0-0.2,0c-0.1,0-0.2,0-0.3,0c-0.1,0-0.2,0-0.3,0
	c-0.2,0-0.4,0-0.4-0.2c-0.1-0.1-0.1-0.3-0.1-0.6V39c0-0.1,0-0.2-0.1-0.2c0,0-0.1,0-0.2,0h-0.5c-0.3,0-1,0.2-1,1.1v8.7
	c0,0.7,0.1,1.2,0.4,1.4c0.3,0.3,0.7,0.4,1.3,0.4c0.2,0,0.4,0,0.7,0c0.3,0,0.5-0.1,0.7-0.2c0.1-0.1,0.2-0.1,0.2-0.1
	C95.5,50.1,95.5,50,95.5,49.9"/>
<path class="st3" d="M99.5,49.9L99.4,49c0-0.1,0-0.1-0.1-0.2c0,0-0.1,0-0.2,0c-0.1,0-0.2,0-0.3,0c-0.1,0-0.2,0-0.3,0
	c-0.2,0-0.4,0-0.4-0.2c-0.1-0.1-0.1-0.3-0.1-0.6V39c0-0.1,0-0.2-0.1-0.2c0,0-0.1,0-0.2,0h-0.5c-0.3,0-1,0.2-1,1.2v8.6
	c0,0.7,0.1,1.2,0.4,1.4c0.3,0.3,0.7,0.4,1.3,0.4c0.2,0,0.5,0,0.7,0c0.3,0,0.5-0.1,0.7-0.2c0.1-0.1,0.2-0.1,0.2-0.1
	C99.6,50.1,99.6,50,99.5,49.9"/>
<path class="st3" d="M67.7,49.9L67.6,49c0-0.1,0-0.1-0.1-0.2c0,0-0.1,0-0.2,0c-0.1,0-0.2,0-0.3,0c-0.1,0-0.2,0-0.3,0
	c-0.2,0-0.4,0-0.4-0.2c-0.1-0.1-0.1-0.3-0.1-0.6V39c0-0.1,0-0.2-0.1-0.2c-0.1,0-0.1,0-0.2,0h-0.5c-0.4,0-1,0.2-1,1.2v8.6
	c0,0.7,0.1,1.2,0.4,1.4c0.3,0.3,0.7,0.4,1.3,0.4c0.2,0,0.4,0,0.7,0c0.3,0,0.5-0.1,0.7-0.2c0.1-0.1,0.2-0.1,0.2-0.1
	C67.8,50.1,67.8,50,67.7,49.9"/>
<path class="st3" d="M50.8,54.6h-1.1v4.6h1.2c1.5,0,1.9-1,1.9-2.3C52.7,55.6,52.3,54.6,50.8,54.6 M48.7,59.6v-5.3
	c0-0.4,0.1-0.5,0.5-0.5l1.6,0c1.9,0,2.8,1.2,2.8,3.1c0,1.9-0.8,3.2-2.7,3.2h-1.7C48.9,60.1,48.7,59.9,48.7,59.6"/>
<path class="st3" d="M56.2,54.6l0.6-1.4c0-0.1,0.1-0.1,0.2-0.1l0.7,0.2c0.1,0,0.1,0.1,0.1,0.1l-1,1.4c-0.1,0.1-0.1,0.1-0.2,0.1
	l-0.3-0.1C56.2,54.7,56.2,54.7,56.2,54.6 M56.7,56c-0.7,0-1.2,0.7-1.2,1.3h2.3C57.8,56.6,57.6,56,56.7,56 M58.7,57.2
	c0,0.6-0.3,0.8-0.7,0.8h-2.4c0,1,0.6,1.4,1.4,1.4c0.4,0,0.8-0.1,1.1-0.3c0.1,0,0.2,0,0.2,0.1l0.2,0.4c0,0.1,0,0.2-0.1,0.2
	c-0.5,0.3-1,0.3-1.5,0.3c-1.4,0-2.2-0.7-2.2-2.4c0-1.6,0.9-2.5,2.1-2.5C58.1,55.2,58.7,56,58.7,57.2"/>
<path class="st3" d="M61.5,59.4c0.8,0,1.3-0.5,1.3-1.7c0-1.1-0.5-1.7-1.2-1.7c-0.2,0-0.6,0-1.1,0.2v3.1
	C60.9,59.4,61.2,59.4,61.5,59.4 M61.5,60.2c-0.6,0-1.2-0.1-1.8-0.3c-0.1,0-0.1-0.1-0.1-0.2v-6c0-0.1,0.1-0.1,0.2-0.1h0.6
	c0.1,0,0.2,0,0.2,0.1v1.8c0.4-0.1,0.9-0.2,1.2-0.2c1.4,0,2,1,2,2.4C63.7,59.1,63.1,60.2,61.5,60.2"/>
<path class="st3" d="M65.6,60.1h-0.6c-0.1,0-0.2,0-0.2-0.1v-4.4c0-0.1,0.1-0.1,0.2-0.1h0.6c0.1,0,0.2,0,0.2,0.1v4.4
	C65.8,60.1,65.7,60.1,65.6,60.1 M65.4,54.7c-0.3,0-0.6-0.3-0.6-0.6c0-0.3,0.3-0.6,0.6-0.6c0.3,0,0.6,0.3,0.6,0.6
	C65.9,54.4,65.7,54.7,65.4,54.7"/>
<path class="st3" d="M66.7,55.9v-0.3c0-0.1,0-0.1,0.1-0.2l0.7-0.1l0.2-0.9c0-0.1,0.1-0.1,0.2-0.2l0.3-0.1c0.1,0,0.2,0,0.2,0.1v1.1
	h0.9c0.1,0,0.1,0.1,0.1,0.1v0.4c0,0.1,0,0.1-0.1,0.1h-0.9v2.8c0,0.4,0.2,0.5,0.6,0.5c0.2,0,0.5,0,0.7-0.1c0.1,0,0.1,0,0.2,0.1
	l0.1,0.5c0,0.1,0,0.1-0.1,0.2c-0.4,0.1-0.8,0.1-1,0.1c-0.9,0-1.3-0.4-1.3-1.3V56h-0.6C66.7,56,66.7,56,66.7,55.9"/>
<path class="st3" d="M72.5,56c-0.9,0-1.3,0.8-1.3,1.7c0,1,0.3,1.7,1.2,1.7c1,0,1.2-0.8,1.2-1.7C73.7,56.8,73.5,56,72.5,56
	 M72.4,60.2c-1.4,0-2.1-0.8-2.1-2.5c0-1.6,0.9-2.5,2.1-2.5c1.4,0,2.1,0.9,2.1,2.4C74.6,59.3,73.9,60.2,72.4,60.2"/>
</svg>
